<svg xmlns="http://www.w3.org/2000/svg" version="1.1" xmlns:xlink="http://www.w3.org/1999/xlink" xmlns:svgjs="http://svgjs.dev/svgjs" width="2000" height="383" viewBox="0 0 2000 383"><g transform="matrix(1,0,0,1,-1.2121212121212466,-0.006137850906128506)"><svg viewBox="0 0 396 76" data-background-color="#ffffff" preserveAspectRatio="xMidYMid meet" height="383" width="2000" xmlns="http://www.w3.org/2000/svg" xmlns:xlink="http://www.w3.org/1999/xlink"><g id="tight-bounds" transform="matrix(1,0,0,1,0.2400000000000091,0.0012179547489949982)"><svg viewBox="0 0 395.52 75.99756409050204" height="75.99756409050204" width="395.52"><g><svg viewBox="0 0 519.5956841296535 99.83820364530641" height="75.99756409050204" width="395.52"><g><rect width="5.794891329321846" height="99.83820364530641" x="103.11092021048391" y="0" fill="#1b4571" opacity="1" stroke-width="0" stroke="transparent" fill-opacity="1" class="rect-o$-0" data-fill-palette-color="primary" rx="1%" id="o$-0" data-palette-color="#1b4571"></rect></g><g transform="matrix(1,0,0,1,124.07568412965352,0.24835374041120417)"><svg viewBox="0 0 395.52 99.341496164484" height="99.341496164484" width="395.52"><g id="textblocktransform"><svg viewBox="0 0 395.52 99.341496164484" height="99.341496164484" width="395.52" id="textblock"><g><svg viewBox="0 0 395.52 64.25842775143498" height="64.25842775143498" width="395.52"><g transform="matrix(1,0,0,1,0,0)"><svg width="395.52" viewBox="2.2 -32.05 200.33 32.55" height="64.25842775143498" data-palette-color="#1b4571"><path d="M24.05-8.95L24.05-8.95Q24.05 0 14.45 0L14.45 0 2.2 0 2.2-31.05 14.2-31.05Q18.95-31.05 21.25-29.13 23.55-27.2 23.55-23 23.55-18.8 20.1-16.6L20.1-16.6 20.1-16.3Q24.05-14.75 24.05-8.95ZM12.45-5.55Q13.95-5.55 14.48-6.23 15-6.9 15-9.03 15-11.15 14.45-12.03 13.9-12.9 12.45-12.9L12.45-12.9 10.85-12.9 10.85-5.55 12.45-5.55ZM12.5-17.75Q13.65-17.75 14.1-18.45 14.55-19.15 14.55-20.93 14.55-22.7 14.08-23.43 13.6-24.15 12.45-24.15L12.45-24.15 10.85-24.15 10.85-17.75 12.5-17.75ZM25.85-12.08Q25.85-18.65 28.37-21.6 30.9-24.55 36.27-24.55 41.65-24.55 44.1-21.65 46.55-18.75 46.55-12.13 46.55-5.5 44.15-2.5 41.75 0.5 36.3 0.5 30.85 0.5 28.35-2.5 25.85-5.5 25.85-12.08ZM37.87-16.8Q37.55-17.8 36.25-17.8 34.95-17.8 34.6-16.8 34.25-15.8 34.25-12.6L34.25-12.6 34.25-11.4Q34.25-7.85 34.6-6.8 34.95-5.75 36.22-5.75 37.5-5.75 37.85-6.8 38.2-7.85 38.2-11.1L38.2-11.1 38.2-12.55Q38.2-15.8 37.87-16.8ZM48.75-12.08Q48.75-18.65 51.27-21.6 53.8-24.55 59.17-24.55 64.55-24.55 67-21.65 69.45-18.75 69.45-12.13 69.45-5.5 67.05-2.5 64.65 0.5 59.2 0.5 53.75 0.5 51.25-2.5 48.75-5.5 48.75-12.08ZM60.77-16.8Q60.45-17.8 59.15-17.8 57.85-17.8 57.5-16.8 57.15-15.8 57.15-12.6L57.15-12.6 57.15-11.4Q57.15-7.85 57.5-6.8 57.85-5.75 59.12-5.75 60.4-5.75 60.75-6.8 61.1-7.85 61.1-11.1L61.1-11.1 61.1-12.55Q61.1-15.8 60.77-16.8ZM87.84-12L92.69 0 83.44 0 80.39-9.2 80.19-9.2 80.19 0 72.04 0 72.04-32.05 80.29-32.05 80.29-14.4 80.49-14.4 84.14-23.95 92.89-23.95 87.84-12ZM96.72-27.8Q99.59-31.55 106.14-31.55 112.69-31.55 115.52-27.85 118.34-24.15 118.34-15.83 118.34-7.5 115.44-3.5 112.54 0.5 106.04 0.5 99.54 0.5 96.69-3.45 93.84-7.4 93.84-15.73 93.84-24.05 96.72-27.8ZM109.74-15.8Q109.74-20.4 109.02-22.03 108.29-23.65 106.07-23.65 103.84-23.65 103.19-22.03 102.54-20.4 102.54-15.85L102.54-15.85 102.54-14.65Q102.54-9.8 103.27-8.28 103.99-6.75 106.22-6.75 108.44-6.75 109.09-8.2 109.74-9.65 109.74-14.2L109.74-14.2 109.74-15.8ZM131.51-17.25Q130.04-17.25 129.54-15.93 129.04-14.6 129.04-11.8 129.04-9 129.51-7.75 129.99-6.5 131.51-6.5 133.04-6.5 135.49-7.05L135.49-7.05 136.39-0.65Q132.94 0.5 130.24 0.5L130.24 0.5Q125.49 0.5 123.06-2.7 120.64-5.9 120.64-11.65 120.64-17.4 123.14-20.98 125.64-24.55 130.39-24.55L130.39-24.55Q133.94-24.55 136.79-23.35L136.79-23.35 135.89-16Q132.99-17.25 131.51-17.25ZM148.29-17.4L148.29-17.4Q146.99-17.4 146.59-16.53 146.19-15.65 146.19-13.85L146.19-13.85 150.54-13.85 150.54-15.05Q150.54-17.4 148.29-17.4ZM148.49-24.55L148.49-24.55Q153.64-24.55 155.86-22.08 158.09-19.6 158.09-15L158.09-15Q158.09-14.4 157.74-9.6L157.74-9.6 146.34-9.6Q146.34-5.85 149.79-5.85L149.79-5.85Q151.44-5.85 156.24-7L156.24-7 156.94-0.8Q152.74 0.5 148.54 0.5L148.54 0.5Q143.39 0.5 140.64-2.88 137.89-6.25 137.89-12.05L137.89-12.05Q137.89-24.55 148.49-24.55ZM178.43-17.7L178.43-17.7 178.18-7.35Q178.18-6.4 178.66-6.08 179.13-5.75 180.28-5.75L180.28-5.75 179.53 0.3Q176.63 0.5 176.33 0.5L176.33 0.5Q172.63 0.5 171.63-2.05L171.63-2.05 171.38-2.05Q169.53 0.5 165.68 0.5L165.68 0.5Q162.73 0.5 161.16-1.4 159.58-3.3 159.58-6.6L159.58-6.6Q159.58-10.75 162.16-12.35 164.73-13.95 170.28-14.45L170.28-14.45 170.28-15.65Q170.28-17.05 168.88-17.05L168.88-17.05Q166.48-17.05 161.38-15.6L161.38-15.6 160.13-22.9Q166.53-24.55 170.78-24.55 175.03-24.55 176.73-22.9 178.43-21.25 178.43-17.7ZM168.78-5.35L168.78-5.35Q170.63-5.35 170.63-7.3L170.63-7.3 170.63-9.75Q168.78-9.5 168.01-8.97 167.23-8.45 167.23-7.2L167.23-7.2Q167.23-5.35 168.78-5.35ZM190.33-22.2L190.53-22.2Q193.28-24.55 196.58-24.55 199.88-24.55 201.21-23.03 202.53-21.5 202.53-18.45L202.53-18.45 202.53 0 194.03 0 194.03-15.6Q194.03-16.85 192.93-16.85L192.93-16.85Q191.53-16.85 190.58-16.15L190.58-16.15 190.58 0 182.18 0 182.18-23.95 189.83-23.95 190.33-22.2Z" opacity="1" transform="matrix(1,0,0,1,0,0)" fill="#1b4571" class="undefined-text-0" data-fill-palette-color="primary" id="text-0"></path></svg></g></svg></g><g transform="matrix(1,0,0,1,0,79.42830034128275)"><svg viewBox="0 0 375.74399999999997 19.913195823201256" height="19.913195823201256" width="375.74399999999997"><g transform="matrix(1,0,0,1,0,0)"><svg width="375.74399999999997" viewBox="1.25 -36.35 699.04 37.050000000000004" height="19.913195823201256" data-palette-color="#d90077"><path d="M10.5-10.25L10.5-10.25Q10.5-6.8 15.48-6.8 20.45-6.8 20.45-9.9L20.45-9.9Q20.45-11.55 18.75-12.6 17.05-13.65 14.63-14.35 12.2-15.05 9.78-15.98 7.35-16.9 5.65-18.88 3.95-20.85 3.95-23.8L3.95-23.8Q3.95-36.35 20.1-36.35L20.1-36.35Q26-36.35 29.03-34.13 32.05-31.9 32.05-27.95L32.05-27.95Q32.05-26.5 31.68-25.18 31.3-23.85 30.9-23.3L30.9-23.3 30.5-22.7 21.65-22.7Q22.75-23.85 22.75-25.6L22.75-25.6Q22.75-28.85 18.5-28.85L18.5-28.85Q13.15-28.85 13.15-25.45L13.15-25.45Q13.15-23.75 14.85-22.75 16.55-21.75 18.98-21.18 21.4-20.6 23.85-19.75 26.3-18.9 28-16.93 29.7-14.95 29.7-11.8L29.7-11.8Q29.7-5.45 25.9-2.38 22.1 0.7 14.2 0.7 6.3 0.7 3.4-2.1L3.4-2.1Q1.25-4.2 1.25-7.9L1.25-7.9Q1.25-9.3 1.55-10.95L1.55-10.95 1.7-11.75 10.7-11.75 10.6-11.15Q10.5-10.65 10.5-10.25ZM39.7-36L49.1-36 54.45-18.75 65.95-36 75.4-36 69.05 0 60 0 63.6-20.3 55.9-8.2 49.35-8.2 45.95-20.3 42.35 0 33.35 0 39.7-36ZM103.45 0L93.95 0 94.25-7.85 85.9-7.85 83.45 0 73.9 0 86.75-36 103.25-36 103.45 0ZM95.05-27.25L91.9-27.25 87.95-14.55 94.5-14.55 95.05-27.25ZM114.54-36L129.04-36Q134.74-36 137.14-33.5L137.14-33.5Q138.94-31.6 138.94-28.7L138.94-28.7Q138.94-27.7 138.74-26.6L138.74-26.6 138.04-22.7Q137.44-19.45 135.97-17.45 134.49-15.45 132.69-14.6L132.69-14.6 137.24 0 127.14 0 122.94-13.45 119.84-13.45 117.79 0 108.19 0 114.54-36ZM125.89-28.2L125.89-28.2 122.14-28.2 120.84-19.5 124.34-19.5Q126.99-19.5 128.14-20.78 129.29-22.05 129.29-24.15L129.29-24.15Q129.29-28.2 125.89-28.2ZM177.54-36L176.14-28.2 163.84-28.2 158.89 0 149.84 0 154.79-28.2 142.44-28.2 143.84-36 177.54-36ZM193.64-36L208.14-36Q213.84-36 216.24-33.5L216.24-33.5Q218.04-31.6 218.04-28.7L218.04-28.7Q218.04-27.7 217.84-26.6L217.84-26.6 217.14-22.7Q216.54-19.45 215.06-17.45 213.59-15.45 211.79-14.6L211.79-14.6 216.34 0 206.24 0 202.04-13.45 198.94-13.45 196.89 0 187.29 0 193.64-36ZM204.99-28.2L204.99-28.2 201.24-28.2 199.94-19.5 203.44-19.5Q206.09-19.5 207.24-20.78 208.39-22.05 208.39-24.15L208.39-24.15Q208.39-28.2 204.99-28.2ZM246.58-7.8L245.18 0 220.08 0 226.43-36 251.53-36 250.13-28.2 234.03-28.2 232.88-21.45 246.18-21.45 244.78-13.65 231.48-13.65 230.48-7.8 246.58-7.8ZM278.23 0L268.73 0 269.03-7.85 260.68-7.85 258.23 0 248.68 0 261.53-36 278.03-36 278.23 0ZM269.83-27.25L266.68-27.25 262.73-14.55 269.28-14.55 269.83-27.25ZM289.33-36L303.33-36Q309.88-36 312.68-32.7L312.68-32.7Q314.73-30.2 314.73-26.45L314.73-26.45Q314.73-25.1 314.48-23.6L314.48-23.6 312.53-12.45Q311.53-6.8 307.63-3.4 303.73 0 297.53 0L297.53 0 282.98 0 289.33-36ZM300.18-28.2L300.18-28.2 296.93-28.2 293.38-7.8 298.13-7.8Q300.48-7.8 301.8-9.08 303.13-10.35 303.63-13.25L303.63-13.25 305.08-21.45Q305.28-22.55 305.28-23.45L305.28-23.45Q305.28-28.2 300.18-28.2ZM334.77-36L349.27-36Q354.97-36 357.37-33.5L357.37-33.5Q359.17-31.6 359.17-28.7L359.17-28.7Q359.17-27.7 358.97-26.6L358.97-26.6 358.52-24.2Q357.97-21.35 356.4-19.75 354.82-18.15 353.62-18.15L353.62-18.15 353.57-17.75Q354.97-17.75 356.42-16.2 357.87-14.65 357.87-12.55L357.87-12.55Q357.87-11.7 357.67-10.75L357.67-10.75 357.37-9.2Q356.57-4.9 353.55-2.45 350.52 0 345.12 0L345.12 0 328.42 0 334.77-36ZM344.77-14.7L344.77-14.7 340.02-14.7 338.82-7.8 343.57-7.8Q343.67-7.8 343.77-7.8L343.77-7.8Q346.07-7.8 347.42-8.88 348.77-9.95 348.77-11.5L348.77-11.5Q348.77-14.7 344.77-14.7ZM346.12-28.2L346.12-28.2 342.37-28.2 341.07-20.75 344.77-20.75Q349.57-20.75 349.57-24.95L349.57-24.95Q349.57-26.4 348.7-27.3 347.82-28.2 346.12-28.2ZM375.77-23.35L376.92-23.35 385.37-36 394.37-36 378.97-13.85 376.52 0 367.47 0 369.92-13.85 362.32-36 371.87-36 375.77-23.35ZM413.27-10.25L413.27-10.25Q413.27-6.8 418.24-6.8 423.22-6.8 423.22-9.9L423.22-9.9Q423.22-11.55 421.52-12.6 419.82-13.65 417.39-14.35 414.97-15.05 412.54-15.98 410.12-16.9 408.42-18.88 406.72-20.85 406.72-23.8L406.72-23.8Q406.72-36.35 422.87-36.35L422.87-36.35Q428.77-36.35 431.79-34.13 434.82-31.9 434.82-27.95L434.82-27.95Q434.82-26.5 434.44-25.18 434.07-23.85 433.67-23.3L433.67-23.3 433.27-22.7 424.42-22.7Q425.52-23.85 425.52-25.6L425.52-25.6Q425.52-28.85 421.27-28.85L421.27-28.85Q415.92-28.85 415.92-25.45L415.92-25.45Q415.92-23.75 417.62-22.75 419.32-21.75 421.74-21.18 424.17-20.6 426.62-19.75 429.07-18.9 430.77-16.93 432.47-14.95 432.47-11.8L432.47-11.8Q432.47-5.45 428.67-2.38 424.87 0.7 416.97 0.7 409.07 0.7 406.17-2.1L406.17-2.1Q404.02-4.2 404.02-7.9L404.02-7.9Q404.02-9.3 404.32-10.95L404.32-10.95 404.47-11.75 413.47-11.75 413.37-11.15Q413.27-10.65 413.27-10.25ZM453.01-10.95L453.01-10.95 447.06-10.95 445.11 0 436.11 0 442.46-36 457.71-36Q463.36-36 465.76-33.4L465.76-33.4Q467.51-31.4 467.51-28.3L467.51-28.3Q467.51-27.25 467.31-26.1L467.31-26.1 466.31-20.45Q465.56-16.3 461.91-13.63 458.26-10.95 453.01-10.95ZM454.56-28.2L454.56-28.2 450.06-28.2 448.41-18.75 452.86-18.75Q456.96-18.75 457.61-22.4L457.61-22.4 457.96-24.45Q458.06-24.9 458.06-25.65 458.06-26.4 457.31-27.3 456.56-28.2 454.56-28.2ZM494.51-7.8L493.11 0 468.01 0 474.36-36 499.46-36 498.06-28.2 481.96-28.2 480.81-21.45 494.11-21.45 492.71-13.65 479.41-13.65 478.41-7.8 494.51-7.8ZM523.96-36L532.96-36 526.66 0 517.61 0 511.31-19.7 507.91 0 498.86 0 505.21-36 514.51-36 520.71-17.6 523.96-36ZM540.05-36L554.05-36Q560.61-36 563.4-32.7L563.4-32.7Q565.46-30.2 565.46-26.45L565.46-26.45Q565.46-25.1 565.21-23.6L565.21-23.6 563.25-12.45Q562.25-6.8 558.36-3.4 554.46 0 548.25 0L548.25 0 533.71 0 540.05-36ZM550.9-28.2L550.9-28.2 547.65-28.2 544.11-7.8 548.86-7.8Q551.21-7.8 552.53-9.08 553.86-10.35 554.36-13.25L554.36-13.25 555.8-21.45Q556-22.55 556-23.45L556-23.45Q556-28.2 550.9-28.2ZM603.35-7.8L601.95 0 579.15 0 585.5-36 594.5-36 589.55-7.8 603.35-7.8ZM632.45-7.8L631.05 0 605.95 0 612.3-36 637.4-36 636-28.2 619.9-28.2 618.75-21.45 632.05-21.45 630.65-13.65 617.35-13.65 616.35-7.8 632.45-7.8ZM646.34-10.25L646.34-10.25Q646.34-6.8 651.32-6.8 656.29-6.8 656.29-9.9L656.29-9.9Q656.29-11.55 654.59-12.6 652.89-13.65 650.47-14.35 648.04-15.05 645.62-15.98 643.19-16.9 641.49-18.88 639.79-20.85 639.79-23.8L639.79-23.8Q639.79-36.35 655.94-36.35L655.94-36.35Q661.84-36.35 664.87-34.13 667.89-31.9 667.89-27.95L667.89-27.95Q667.89-26.5 667.52-25.18 667.14-23.85 666.74-23.3L666.74-23.3 666.34-22.7 657.49-22.7Q658.59-23.85 658.59-25.6L658.59-25.6Q658.59-28.85 654.34-28.85L654.34-28.85Q648.99-28.85 648.99-25.45L648.99-25.45Q648.99-23.75 650.69-22.75 652.39-21.75 654.82-21.18 657.24-20.6 659.69-19.75 662.14-18.9 663.84-16.93 665.54-14.95 665.54-11.8L665.54-11.8Q665.54-5.45 661.74-2.38 657.94 0.7 650.04 0.7 642.14 0.7 639.24-2.1L639.24-2.1Q637.09-4.2 637.09-7.9L637.09-7.9Q637.09-9.3 637.39-10.95L637.39-10.95 637.54-11.75 646.54-11.75 646.44-11.15Q646.34-10.65 646.34-10.25ZM678.74-10.25L678.74-10.25Q678.74-6.8 683.72-6.8 688.69-6.8 688.69-9.9L688.69-9.9Q688.69-11.55 686.99-12.6 685.29-13.65 682.87-14.35 680.44-15.05 678.02-15.98 675.59-16.9 673.89-18.88 672.19-20.85 672.19-23.8L672.19-23.8Q672.19-36.35 688.34-36.35L688.34-36.35Q694.24-36.35 697.27-34.13 700.29-31.9 700.29-27.95L700.29-27.95Q700.29-26.5 699.92-25.18 699.54-23.85 699.14-23.3L699.14-23.3 698.74-22.7 689.89-22.7Q690.99-23.85 690.99-25.6L690.99-25.6Q690.99-28.85 686.74-28.85L686.74-28.85Q681.39-28.85 681.39-25.45L681.39-25.45Q681.39-23.75 683.09-22.75 684.79-21.75 687.22-21.18 689.64-20.6 692.09-19.75 694.54-18.9 696.24-16.93 697.94-14.95 697.94-11.8L697.94-11.8Q697.94-5.45 694.14-2.38 690.34 0.7 682.44 0.7 674.54 0.7 671.64-2.1L671.64-2.1Q669.49-4.2 669.49-7.9L669.49-7.9Q669.49-9.3 669.79-10.95L669.79-10.95 669.94-11.75 678.94-11.75 678.84-11.15Q678.74-10.65 678.74-10.25Z" opacity="1" transform="matrix(1,0,0,1,0,0)" fill="#d90077" class="undefined-text-1" data-fill-palette-color="secondary" id="text-1"></path></svg></g></svg></g></svg></g></svg></g><g transform="matrix(1,0,0,1,0,0.24835374041120417)"><svg viewBox="0 0 87.94104762063614 99.341496164484" height="99.341496164484" width="87.94104762063614"><g><svg xmlns="http://www.w3.org/2000/svg" xmlns:xlink="http://www.w3.org/1999/xlink" version="1.1" x="0" y="0" viewBox="6.891 1.1219999999999999 85.824 96.95" enable-background="new 0 0 100 100" xml:space="preserve" height="99.341496164484" width="87.94104762063614" class="icon-icon-0" data-fill-palette-color="accent" id="icon-0"><g fill="#2cd680" data-fill-palette-color="accent"><path fill="#2cd680" d="M64.008 72.381c4.002-3.149 12.23-11.582 15.089-21.179-6.511-8.01-33.912-42.187-40.238-50.08C38.212 8.613 31.63 24.377 20.21 29.646c-5.247 2.56-10.477 4.156-12.467 4.721l39.077 47.32C51.235 80.263 59.958 75.56 64.008 72.381z" data-fill-palette-color="accent"></path><g fill="#2cd680" data-fill-palette-color="accent"><g fill="#2cd680" data-fill-palette-color="accent"><path fill="#2cd680" d="M90.405 75.352c-6.5 3.781-13.381 7.281-20.674 9.929-8.632 3.134-19.05 6.681-22.386 7.664v5.127l43.046-15.479L90.405 75.352z" data-fill-palette-color="accent"></path><polygon fill="#2cd680" points="6.891,35.865 6.891,50.088 45.703,97.945 45.736,82.902    " data-fill-palette-color="accent"></polygon></g><path fill="#2cd680" d="M88.717 70.42c-5.018 3.936-11.386 7.921-18.278 11.363-6.521 3.266-20.879 7.668-23.093 8.339v1.144c3.686-1.09 13.036-3.898 21.237-7.013 9.104-3.457 22.12-11.628 22.12-11.628L88.717 70.42z" data-fill-palette-color="accent"></path></g><path fill="#2cd680" d="M80.877 50.835l-0.114 0.403c-2.851 10.142-11.25 18.858-15.762 22.409-4.225 3.319-13.009 8.054-17.655 9.561v2.168c6.53-2.034 15.656-6.36 20.721-9.922 8.699-6.128 17.195-14.63 22.419-22.404l0.047 0.036C84.648 46.442 51.938 9.001 49.818 6.309c-0.719 1.357-1.368 2.265-2.422 2.887 10.832 13.508 28.598 35.647 33.217 41.314L80.877 50.835z" data-fill-palette-color="accent"></path><path fill="#2cd680" d="M87.321 59.925c0 0-11.588 12.1-18.328 16.846-5.696 4.008-14.5 7.942-21.647 10.168v1.498c0.692-0.212 1.838-0.566 3.268-1.021 5.266-1.677 14.41-4.722 19.106-7.072 9.305-4.648 17.623-10.274 22.834-15.386 0.054-0.053 0.106-0.106 0.161-0.16L87.321 59.925z" data-fill-palette-color="accent"></path></g></svg></g></svg></g></svg></g><defs></defs></svg><rect width="395.52" height="75.99756409050204" fill="none" stroke="none" visibility="hidden"></rect></g></svg></g></svg>